<?xml version="1.0" standalone="no"?>
<!DOCTYPE svg PUBLIC "-//W3C//DTD SVG 20010904//EN"
 "http://www.w3.org/TR/2001/REC-SVG-20010904/DTD/svg10.dtd">
<svg version="1.0" xmlns="http://www.w3.org/2000/svg"
 width="309.000000pt" height="163.000000pt" viewBox="0 0 309.000000 163.000000"
 preserveAspectRatio="xMidYMid meet">
<metadata>
Created by potrace 1.16, written by Peter Selinger 2001-2019
</metadata>
<g transform="translate(0.000000,163.000000) scale(0.100000,-0.100000)"
fill="#000000" stroke="none">
<path d="M233 1620 c-86 -18 -168 -84 -207 -169 -21 -45 -21 -53 -21 -636 0
-583 0 -591 21 -636 28 -60 93 -125 153 -153 45 -21 53 -21 656 -21 l610 0 53
24 c72 32 137 106 160 182 l18 59 35 -36 c80 -84 238 -170 379 -205 112 -29
307 -23 415 11 287 91 494 311 561 597 24 100 21 276 -6 378 -77 297 -307 520
-608 591 -99 24 -276 21 -377 -6 -136 -35 -276 -112 -354 -194 -19 -20 -38
-36 -41 -36 -4 0 -14 24 -23 54 -23 71 -90 146 -159 177 l-53 24 -585 2 c-322
0 -604 -3 -627 -7z m2272 -74 c124 -42 219 -101 310 -192 84 -84 131 -154 172
-254 121 -300 29 -664 -219 -869 -73 -61 -215 -134 -308 -158 -47 -13 -101
-18 -195 -17 -120 0 -138 3 -225 33 -264 90 -444 283 -511 551 -18 72 -21 103
-16 210 4 83 12 145 25 186 70 221 240 405 453 491 104 42 173 53 309 49 103
-3 139 -8 205 -30z m-2045 -319 c0 -2 29 -66 65 -142 l65 -139 36 80 c20 43
49 107 65 142 l28 62 66 0 66 0 -94 -182 -95 -183 99 -185 c54 -102 98 -188
98 -192 1 -5 -30 -8 -67 -8 l-68 0 -72 146 -71 146 -70 -146 -70 -146 -66 0
-66 0 87 168 c48 92 91 171 95 176 18 20 7 50 -78 219 -48 94 -89 175 -91 180
-2 4 28 7 67 7 39 0 71 -1 71 -3z m872 -342 c0 -190 1 -351 2 -357 1 -19 -48
-39 -125 -51 -134 -21 -234 24 -285 130 -25 50 -29 69 -29 143 1 99 22 156 77
212 48 48 102 71 176 76 l62 4 0 94 0 94 60 0 60 0 2 -345z"/>
<path d="M2151 1480 c-168 -36 -310 -122 -413 -252 l-32 -41 125 4 124 4 0
-25 c0 -21 -6 -26 -46 -35 l-47 -10 122 -357 122 -357 72 218 72 218 -51 140
-51 140 -46 9 c-38 7 -48 13 -50 32 -2 12 0 22 5 23 4 0 98 1 208 2 l200 1 0
-25 c0 -21 -6 -25 -46 -33 l-47 -9 98 -291 c55 -160 109 -320 121 -355 l22
-64 39 119 c50 156 78 269 78 321 0 56 -24 123 -72 206 -70 117 -61 204 25
245 l40 19 -73 48 c-107 71 -219 107 -350 111 -58 2 -125 -1 -149 -6z"/>
<path d="M2874 1103 c12 -38 -12 -166 -53 -284 -21 -63 -75 -219 -120 -348
-78 -226 -80 -233 -53 -215 142 92 252 253 288 424 22 105 14 241 -21 345 -14
44 -31 85 -37 90 -7 7 -8 3 -4 -12z"/>
<path d="M1638 1044 c-30 -73 -41 -161 -35 -267 9 -176 67 -304 192 -432 62
-64 159 -134 170 -124 3 4 -273 770 -303 843 -7 17 -11 14 -24 -20z"/>
<path d="M2187 463 c-62 -178 -95 -289 -89 -295 5 -5 50 -14 100 -20 76 -10
105 -9 183 4 50 9 96 21 101 26 6 6 -30 116 -92 288 -56 154 -103 280 -103
281 -1 0 -46 -127 -100 -284z"/>
<path d="M1105 921 c-50 -23 -76 -66 -82 -139 -7 -74 9 -131 47 -167 26 -24
39 -29 83 -30 l52 0 0 175 0 175 -30 3 c-16 1 -48 -6 -70 -17z"/>
</g>
</svg>
